# xmcd
#
# Track frame offsets:
#	150
#	13592
#	30395
#	48450
#	60855
#	71332
#	83825
#	99157
#	115100
#	129510
#
# Disc length: 1928 seconds
#
# Revision: 1
# Processed by: cddbd v1.5.1PL0 Copyright (c) Steve Scherf et al.
# Submitted via: EasyCDDAExtractor 6.0.0.1
#
DISCID=6d07860a
DTITLE=Mate Miso Kovac - Ostala si uvijek ista
DYEAR=1985
DGENRE=Pop
TTITLE0=Jedan dan zivota
TTITLE1=Cemu da zivim
TTITLE2=Ostala si uvijek ista
TTITLE3=Sve sto mi zivot pruza
TTITLE4=Ja odlazim
TTITLE5=Vrijeme plakanja
TTITLE6=Zelena trava doma mog
TTITLE7=Vise se neces vratiti
TTITLE8=Reci,zbogom
TTITLE9=Sto znaci zivot moj
EXTD=
EXTT0=
EXTT1=
EXTT2=
EXTT3=
EXTT4=
EXTT5=
EXTT6=
EXTT7=
EXTT8=
EXTT9=
PLAYORDER=
